<svg xmlns="http://www.w3.org/2000/svg" xmlns:xlink="http://www.w3.org/1999/xlink" viewBox="0 0 48 48"><defs><clipPath id="a"><circle cx="-24" cy="72" r="24" style="fill:none"/></clipPath><clipPath id="b"><circle cx="-24" cy="24" r="24" style="fill:none"/></clipPath><clipPath id="c"><circle cx="-24" cy="-24" r="24" style="fill:none"/></clipPath></defs><title>colorless</title><rect x="-384" y="-48" width="576" height="576" style="fill:#4d4d4d"/><g style="clip-path:url(#a)"><path d="M.48,72A24.48,24.48,0,0,0-24,47.52V72Z" style="fill:#ffffdf"/></g><g style="clip-path:url(#b)"><path d="M-24,24V48.48A24.48,24.48,0,0,0,.48,24Z" style="fill:#007da7"/><path d="M.48,24A24.48,24.48,0,0,0-24-.48V24Z" style="fill:#ffffdf"/></g><g style="clip-path:url(#c)"><path d="M-24-24V.48A24.48,24.48,0,0,0,.48-24Z" style="fill:#007da7"/></g><path d="M24,46.5A22.5,22.5,0,1,1,46.5,24,22.53,22.53,0,0,1,24,46.5Z" style="fill:#9b9b9b"/><path d="M24,3A21,21,0,1,1,3,24,21,21,0,0,1,24,3m0-3A24,24,0,1,0,48,24,24,24,0,0,0,24,0Z" style="fill:#fff"/></svg>