<svg xmlns="http://www.w3.org/2000/svg" xmlns:xlink="http://www.w3.org/1999/xlink" viewBox="0 0 48 48"><defs><clipPath id="a"><circle cx="24" cy="24" r="24" style="fill:none"/></clipPath><clipPath id="b"><circle cx="72" cy="24" r="24" style="fill:none"/></clipPath><clipPath id="c"><circle cx="72" cy="-24" r="24" style="fill:none"/></clipPath></defs><title>rg</title><rect x="-288" y="-192" width="576" height="576" style="fill:#4d4d4d"/><g style="clip-path:url(#a)"><rect x="24" width="24" height="48" style="fill:#0e781b"/><rect width="24" height="48" style="fill:#bc1c13"/><path d="M24,3A21,21,0,1,1,3,24,21,21,0,0,1,24,3m0-3A24,24,0,1,0,48,24,24,24,0,0,0,24,0Z" style="fill:#fff"/></g><g style="clip-path:url(#b)"><path d="M72-.48A24.48,24.48,0,0,0,47.52,24H72Z" style="fill:#0e781b"/><path d="M47.52,24A24.48,24.48,0,0,0,72,48.48V24Z" style="fill:#bc1c13"/></g><g style="clip-path:url(#c)"><path d="M47.52-24A24.48,24.48,0,0,0,72,.48V-24Z" style="fill:#bc1c13"/></g></svg>