<svg xmlns="http://www.w3.org/2000/svg" xmlns:xlink="http://www.w3.org/1999/xlink" viewBox="0 0 48 48"><defs><clipPath id="a"><circle cx="24" cy="24" r="24" style="fill:none"/></clipPath><clipPath id="b"><circle cx="24" cy="-24" r="24" style="fill:none"/></clipPath></defs><title>ug</title><rect x="-192" y="-192" width="576" height="576" style="fill:#4d4d4d"/><g style="clip-path:url(#a)"><rect x="24" width="24" height="48" style="fill:#0e781b"/><rect width="24" height="48" style="fill:#007da7"/><path d="M24,3A21,21,0,1,1,3,24,21,21,0,0,1,24,3m0-3A24,24,0,1,0,48,24,24,24,0,0,0,24,0Z" style="fill:#fff"/></g><g style="clip-path:url(#b)"><rect x="24" y="-48" width="24" height="48" style="fill:#bc1c13"/><rect y="-48" width="24" height="48" style="fill:#007da7"/><path d="M24-45A21,21,0,0,1,45-24,21,21,0,0,1,24-3,21,21,0,0,1,3-24,21,21,0,0,1,24-45m0-3A24,24,0,0,0,0-24,24,24,0,0,0,24,0,24,24,0,0,0,48-24,24,24,0,0,0,24-48Z" style="fill:#fff"/></g></svg>