<svg xmlns="http://www.w3.org/2000/svg" xmlns:xlink="http://www.w3.org/1999/xlink" viewBox="0 0 48 48"><defs><clipPath id="a"><circle cx="24" cy="24" r="24" style="fill:none"/></clipPath><clipPath id="b"><circle cx="24" cy="72" r="24" style="fill:none"/></clipPath></defs><title>wu</title><rect x="-144" y="-48" width="576" height="576" style="fill:#4d4d4d"/><g style="clip-path:url(#a)"><rect x="24" width="24" height="48" style="fill:#007da7"/><rect width="24" height="48" style="fill:#ffffdf"/><path d="M24,3A21,21,0,1,1,3,24,21,21,0,0,1,24,3m0-3A24,24,0,1,0,48,24,24,24,0,0,0,24,0Z" style="fill:#fff"/></g><g style="clip-path:url(#b)"><rect x="24" y="48" width="24" height="48" style="fill:#1c1c1c"/><rect y="48" width="24" height="48" style="fill:#ffffdf"/><path d="M24,51A21,21,0,1,1,3,72,21,21,0,0,1,24,51m0-3A24,24,0,1,0,48,72,24,24,0,0,0,24,48Z" style="fill:#fff"/></g></svg>