<svg xmlns="http://www.w3.org/2000/svg" xmlns:xlink="http://www.w3.org/1999/xlink" viewBox="0 0 48 48"><defs><clipPath id="a"><circle cx="-24" cy="72" r="24" style="fill:none"/></clipPath><clipPath id="b"><circle cx="-24" cy="24" r="24" style="fill:none"/></clipPath><clipPath id="c"><circle cx="24" cy="24" r="24" style="fill:none"/></clipPath></defs><title>wubrg</title><rect x="-384" width="576" height="576" style="fill:#4d4d4d"/><g style="clip-path:url(#a)"><path d="M.48,72A24.48,24.48,0,0,0-24,47.52V72Z" style="fill:#ffffdf"/></g><g style="clip-path:url(#b)"><path d="M-24,24V48.48A24.48,24.48,0,0,0,.48,24Z" style="fill:#007da7"/><path d="M.48,24A24.48,24.48,0,0,0-24-.48V24Z" style="fill:#ffffdf"/></g><g style="clip-path:url(#c)"><path d="M1.18,16.56A24,24,0,0,0,9.9,43.41L24,24Z" style="fill:#bc1c13"/><path d="M46.83,16.59A24,24,0,0,0,24,0V24Z" style="fill:#ffffdf"/><path d="M24,0A24,24,0,0,0,1.18,16.56L24,24Z" style="fill:#0e781b"/><path d="M48,24a24,24,0,0,0-1.17-7.41L24,24,38.1,43.41A24,24,0,0,0,48,24Z" style="fill:#007da7"/><path d="M9.9,43.41a24,24,0,0,0,28.21,0L24,24Z" style="fill:#1c1c1c"/><path d="M24,3A21,21,0,1,1,3,24,21,21,0,0,1,24,3m0-3A24,24,0,1,0,48,24,24,24,0,0,0,24,0Z" style="fill:#fff"/></g></svg>