<svg xmlns="http://www.w3.org/2000/svg" xmlns:xlink="http://www.w3.org/1999/xlink" viewBox="0 0 48 48"><defs><clipPath id="a"><circle cx="24" cy="24" r="24" style="fill:none"/></clipPath></defs><title>wug_1</title><rect x="-240" y="-48" width="576" height="576" style="fill:#4d4d4d"/><g style="clip-path:url(#a)"><path d="M24,.37A23.63,23.63,0,0,0,3.54,35.82L24,24Z" style="fill:#0e781b"/><path d="M3.54,35.82a23.63,23.63,0,0,0,40.93,0L24,24Z" style="fill:#007da7"/><path d="M24,.37V24L44.46,35.82A23.63,23.63,0,0,0,24,.37Z" style="fill:#ffffdf"/><path d="M24,3A21,21,0,1,1,3,24,21,21,0,0,1,24,3m0-3A24,24,0,1,0,48,24,24,24,0,0,0,24,0Z" style="fill:#fff"/></g></svg>