<svg xmlns="http://www.w3.org/2000/svg" xmlns:xlink="http://www.w3.org/1999/xlink" viewBox="0 0 48 48"><defs><clipPath id="a"><circle cx="24" cy="72" r="24" style="fill:none"/></clipPath><clipPath id="b"><circle cx="24" cy="24" r="24" style="fill:none"/></clipPath><clipPath id="c"><circle cx="24" cy="-24" r="24" style="fill:none"/></clipPath></defs><title>wurg</title><rect x="-336" y="-96" width="576" height="576" style="fill:#4d4d4d"/><g style="clip-path:url(#a)"><path d="M24,47.52A24.48,24.48,0,0,0-.48,72H24Z" style="fill:#0e781b"/><path d="M48.48,72A24.48,24.48,0,0,0,24,47.52V72Z" style="fill:#ffffdf"/></g><g style="clip-path:url(#b)"><path d="M24-.48A24.48,24.48,0,0,0-.48,24H24Z" style="fill:#0e781b"/><path d="M-.48,24A24.48,24.48,0,0,0,24,48.48V24Z" style="fill:#bc1c13"/><path d="M24,24V48.48A24.48,24.48,0,0,0,48.48,24Z" style="fill:#007da7"/><path d="M48.48,24A24.48,24.48,0,0,0,24-.48V24Z" style="fill:#ffffdf"/><path d="M24,3A21,21,0,1,1,3,24,21,21,0,0,1,24,3m0-3A24,24,0,1,0,48,24,24,24,0,0,0,24,0Z" style="fill:#fff"/></g><g style="clip-path:url(#c)"><path d="M-.48-24A24.48,24.48,0,0,0,24,.48V-24Z" style="fill:#1c1c1c"/><path d="M24-24V.48A24.48,24.48,0,0,0,48.48-24Z" style="fill:#007da7"/></g></svg>