<svg xmlns="http://www.w3.org/2000/svg" viewBox="0 0 48 48"><title>menu</title><rect y="-96" width="576" height="576" style="fill:#4d4d4d"/><path d="M47.21-4.61,33-18.85a2.69,2.69,0,0,0-2.38-.75L28-22.21a15.71,15.71,0,0,0,3.59-10A15.8,15.8,0,0,0,15.78-48,15.8,15.8,0,0,0,0-32.22,15.8,15.8,0,0,0,15.78-16.43a15.71,15.71,0,0,0,10-3.59l2.61,2.61A2.69,2.69,0,0,0,29.15-15L43.39-.79A2.69,2.69,0,0,0,45.3,0a2.69,2.69,0,0,0,1.91-.79A2.7,2.7,0,0,0,47.21-4.61ZM15.78-19.52a12.71,12.71,0,0,1-12.7-12.7,12.71,12.71,0,0,1,12.7-12.7,12.71,12.71,0,0,1,12.7,12.7A12.71,12.71,0,0,1,15.78-19.52Z" style="fill:gray"/><path d="M44.7,12.59H3.3A3.3,3.3,0,1,1,3.3,6H44.7a3.3,3.3,0,1,1,0,6.59Z" style="fill:gray"/><path d="M44.7,27.3H3.3a3.3,3.3,0,1,1,0-6.59H44.7a3.3,3.3,0,1,1,0,6.59Z" style="fill:gray"/><path d="M44.7,42H3.3a3.3,3.3,0,1,1,0-6.59H44.7a3.3,3.3,0,1,1,0,6.59Z" style="fill:gray"/></svg>